<svg width="24px" height="24px" viewBox="0 0 24 24" fill="none" xmlns="http://www.w3.org/2000/svg">
<path d="M19.2071 2.79312C17.9882 1.57417 16.0119 1.57417 14.7929 2.79312L5.68463 11.9014C5.30015 12.2859 5.0274 12.7676 4.89552 13.2951L4.02988 16.7577C3.94468 17.0985 4.04453 17.459 4.29291 17.7073C4.54129 17.9557 4.90178 18.0556 5.24256 17.9704L8.70513 17.1047C9.23263 16.9729 9.71437 16.7001 10.0988 16.3156L19.2071 7.20733C20.4261 5.98838 20.4261 4.01207 19.2071 2.79312Z" fill="#4296FF"/>
<path d="M4 21C4 20.4477 4.44772 20 5 20H19C19.5523 20 20 20.4477 20 21C20 21.5523 19.5523 22 19 22H5C4.44772 22 4 21.5523 4 21Z" fill="#152C70"/>
</svg>
