<?xml version="1.0" encoding="iso-8859-1"?>
<!-- Generator: Adobe Illustrator 19.0.0, SVG Export Plug-In . SVG Version: 6.00 Build 0)  -->
<svg version="1.1" id="Layer_1" xmlns="http://www.w3.org/2000/svg" xmlns:xlink="http://www.w3.org/1999/xlink" x="0px" y="0px"
	 viewBox="0 0 512.001 512.001" style="enable-background:new 0 0 512.001 512.001;" xml:space="preserve">
<polygon style="fill:#FFD890;" points="174.023,501.801 461.98,501.801 461.98,72.549 50.021,72.549 50.021,377.799 "/>
<polygon style="fill:#FF9839;" points="176.108,374.814 176.404,498.817 52.402,374.814 "/>
<g>
	<path style="fill:#4C1D1D;" d="M461.98,62.35h-38.056v-9.585C423.923,23.67,400.253,0,371.158,0s-52.765,23.67-52.765,52.765v9.585
		H50.021c-5.632,0-10.199,4.566-10.199,10.199v305.25c0,2.705,1.075,5.299,2.987,7.212l124.002,124.003
		c1.913,1.912,4.507,2.987,7.212,2.987H461.98c5.632,0,10.199-4.566,10.199-10.199V72.549
		C472.179,66.916,467.613,62.35,461.98,62.35z M338.792,52.765c0-17.847,14.52-32.366,32.366-32.366
		c17.847,0,32.366,14.52,32.366,32.366v9.585H338.79v-9.585H338.792z M71.66,385.013h94.273l0.225,94.499L71.66,385.013z
		 M451.78,491.602H186.586l-0.278-116.813c-0.013-5.624-4.575-10.175-10.199-10.175H60.221V82.748h343.304v96.514
		c0,6.277-5.107,11.383-11.383,11.383s-11.383-5.107-11.383-11.383v-25.18c0-5.633-4.567-10.199-10.199-10.199
		c-5.632,0-10.199,4.566-10.199,10.199v25.18c0,17.524,14.257,31.782,31.782,31.782c17.524,0,31.782-14.257,31.782-31.782V82.748
		h27.857V491.602z"/>
	<path style="fill:#4C1D1D;" d="M370.558,131.445c5.632,0,10.199-4.566,10.199-10.199v-5.995c0-5.633-4.567-10.199-10.199-10.199
		c-5.632,0-10.199,4.566-10.199,10.199v5.995C360.359,126.879,364.926,131.445,370.558,131.445z"/>
</g>
<g>
</g>
<g>
</g>
<g>
</g>
<g>
</g>
<g>
</g>
<g>
</g>
<g>
</g>
<g>
</g>
<g>
</g>
<g>
</g>
<g>
</g>
<g>
</g>
<g>
</g>
<g>
</g>
<g>
</g>
</svg>
